<svg width="30" height="22" viewBox="0 0 30 22" fill="none" xmlns="http://www.w3.org/2000/svg">
<path d="M27.7752 4.59969C27.6312 4.02445 27.338 3.49741 26.9251 3.07177C26.5122 2.64614 25.9944 2.337 25.4238 2.17557C23.339 1.6665 15.0001 1.6665 15.0001 1.6665C15.0001 1.6665 6.66112 1.6665 4.57638 2.22405C4.0058 2.38548 3.48792 2.69462 3.07506 3.12025C2.6622 3.54589 2.36897 4.07294 2.22499 4.64817C1.84345 6.76388 1.65682 8.91014 1.66744 11.06C1.65384 13.226 1.84048 15.3886 2.22499 17.5202C2.38372 18.0776 2.68352 18.5846 3.09542 18.9922C3.50732 19.3999 4.0174 19.6944 4.57638 19.8474C6.66112 20.4049 15.0001 20.4049 15.0001 20.4049C15.0001 20.4049 23.339 20.4049 25.4238 19.8474C25.9944 19.686 26.5122 19.3768 26.9251 18.9512C27.338 18.5255 27.6312 17.9985 27.7752 17.4233C28.1538 15.3235 28.3404 13.1936 28.3327 11.06C28.3463 8.89395 28.1597 6.73133 27.7752 4.59969Z" stroke="white" stroke-width="2" stroke-linecap="round" stroke-linejoin="round"/>
<path d="M12.0001 7.62028C12.0001 6.9839 12.0001 6.66571 12.1331 6.48807C12.249 6.33327 12.4264 6.23642 12.6193 6.22264C12.8406 6.20683 13.1082 6.3789 13.6436 6.72302L18.9006 10.1026C19.3652 10.4012 19.5974 10.5505 19.6776 10.7404C19.7477 10.9062 19.7477 11.0934 19.6776 11.2593C19.5974 11.4492 19.3652 11.5985 18.9006 11.8971L13.6436 15.2767C13.1082 15.6208 12.8406 15.7928 12.6193 15.777C12.4264 15.7633 12.249 15.6664 12.1331 15.5116C12.0001 15.334 12.0001 15.0158 12.0001 14.3794V7.62028Z" stroke="white" stroke-width="2" stroke-linecap="round" stroke-linejoin="round"/>
</svg>
